/* XPM */
static char *_fd69401fc424a52b9b21ba6898f3bc8VItLh66Gds8eJkER[] = {
/* columns rows colors chars-per-pixel */
"100 100 2 1 ",
"  c black",
". c #FFC20E",
/* pixels */
"....................................................................................................",
"....................................................................................................",
"....................................................................................................",
"....................................................................................................",
"....................................................................................................",
"....................................................................................................",
"....................................................................................................",
"....................................................................................................",
"....................................................................................................",
"....................................................................................................",
"....................................................................................................",
"....................................................................................................",
"....................................................................................................",
"....................................................................................................",
"....................................................................................................",
"....................................................................................................",
"....................................................................................................",
"....................................................................................................",
"....................................................................................................",
"....................................................................................................",
"....................................................................................................",
"....................................................................................................",
"....................................................................................................",
"....................................................................................................",
"....................................................................................................",
"....................................................................................................",
"....................................................................................................",
"....................................................................................................",
".................................                                ...................................",
".................................                                ...................................",
".................................                                ...................................",
".................................                                ...................................",
".................................                                ...................................",
".................................                                ...................................",
".................................                                ...................................",
".................................                                ...................................",
".................................        ...........................................................",
".................................        ...........................................................",
".................................        ...........................................................",
".................................        ...........................................................",
".................................        ...........................................................",
".................................        ...........................................................",
".................................        ...........................................................",
".................................        ...........................................................",
".................................                        ...........................................",
".................................                        ...........................................",
".................................                        ...........................................",
".................................                        ...........................................",
".................................                        ...........................................",
".................................                        ...........................................",
".................................                        ...........................................",
".................................                        ...........................................",
".................................        ...........................................................",
".................................        ...........................................................",
".................................        ...........................................................",
".................................        ...........................................................",
".................................        ...........................................................",
".................................        ...........................................................",
".................................        ...........................................................",
".................................        ...........................................................",
".................................                                ...................................",
".................................                                ...................................",
".................................                                ...................................",
".................................                                ...................................",
".................................                                ...................................",
".................................                                ...................................",
".................................                                ...................................",
".................................                                ...................................",
"....................................................................................................",
"....................................................................................................",
"....................................................................................................",
"....................................................................................................",
"....................................................................................................",
"....................................................................................................",
"....................................................................................................",
"....................................................................................................",
"....................................................................................................",
"....................................................................................................",
"....................................................................................................",
"....................................................................................................",
"....................................................................................................",
"....................................................................................................",
"....................................................................................................",
"....................................................................................................",
"....................................................................................................",
"....................................................................................................",
"....................................................................................................",
"....................................................................................................",
"....................................................................................................",
"....................................................................................................",
"....................................................................................................",
"....................................................................................................",
"....................................................................................................",
"....................................................................................................",
"....................................................................................................",
"....................................................................................................",
"....................................................................................................",
"....................................................................................................",
"....................................................................................................",
"...................................................................................................."
};
