/* XPM */
static char *_945a16884d44a80e5bc6ab8e75070f7s1Tln9bWl18Xw0BE[] = {
/* columns rows colors chars-per-pixel */
"64 64 2 1 ",
"  c black",
". c #99D9EA",
/* pixels */
"................................................................",
"................................................................",
"................................................................",
"................................................................",
"................................................................",
"................................................................",
"................................................................",
"................................................................",
"................................................................",
"................................................................",
"................................................................",
"................................................................",
".................                            ...................",
".................                            ...................",
".................                            ...................",
".................                            ...................",
".................                            ...................",
".................                            ...................",
".................                            ...................",
".................       ........................................",
".................       ........................................",
".................       ........................................",
".................       ........................................",
".................       ........................................",
".................       ........................................",
".................       ........................................",
".................                     ..........................",
".................                     ..........................",
".................                     ..........................",
".................                     ..........................",
".................                     ..........................",
".................                     ..........................",
".................                     ..........................",
".................       ........................................",
".................       ........................................",
".................       ........................................",
".................       ........................................",
".................       ........................................",
".................       ........................................",
".................       ........................................",
".................                            ...................",
".................                            ...................",
".................                            ...................",
".................                            ...................",
".................                            ...................",
".................                            ...................",
".................                            ...................",
"................................................................",
"................................................................",
"................................................................",
"................................................................",
"................................................................",
"................................................................",
"................................................................",
"................................................................",
"................................................................",
"................................................................",
"................................................................",
"................................................................",
"................................................................",
"................................................................",
"................................................................",
"................................................................",
"................................................................"
};
