/* XPM */
static char *_5800b7c9a29448fa0628d2743f480810wwbnbfrDnOpfQsg[] = {
/* columns rows colors chars-per-pixel */
"100 100 2 1 ",
"  c black",
". c #ED1C24",
/* pixels */
"....................................................................................................",
"....................................................................................................",
"....................................................................................................",
"....................................................................................................",
"....................................................................................................",
"....................................................................................................",
"....................................................................................................",
"....................................................................................................",
"....................................................................................................",
"....................................................................................................",
"....................................................................................................",
"....................................................................................................",
"....................................................................................................",
"....................................................................................................",
"....................................................................................................",
"....................................................................................................",
"....................................................................................................",
"....................................................................................................",
"....................................................................................................",
"....................................................................................................",
"....................................................................................................",
"....................................................................................................",
"....................................................................................................",
"....................................................................................................",
"....................................................................................................",
"....................................................................................................",
"....................................................................................................",
"..................................        ................        ..................................",
"..................................        ................        ..................................",
"..................................        ................        ..................................",
"..................................        ................        ..................................",
"..................................        ................        ..................................",
"..................................        ................        ..................................",
"..................................        ................        ..................................",
"..................................        ................        ..................................",
"..................................                ........        ..................................",
"..................................                ........        ..................................",
"..................................                ........        ..................................",
"..................................                ........        ..................................",
"..................................                ........        ..................................",
"..................................                ........        ..................................",
"..................................                ........        ..................................",
"..................................                ........        ..................................",
"..................................        ........                ..................................",
"..................................        ........                ..................................",
"..................................        ........                ..................................",
"..................................        ........                ..................................",
"..................................        ........                ..................................",
"..................................        ........                ..................................",
"..................................        ........                ..................................",
"..................................        ........                ..................................",
"..................................        ................        ..................................",
"..................................        ................        ..................................",
"..................................        ................        ..................................",
"..................................        ................        ..................................",
"..................................        ................        ..................................",
"..................................        ................        ..................................",
"..................................        ................        ..................................",
"..................................        ................        ..................................",
"..................................        ................        ..................................",
"..................................        ................        ..................................",
"..................................        ................        ..................................",
"..................................        ................        ..................................",
"..................................        ................        ..................................",
"..................................        ................        ..................................",
"..................................        ................        ..................................",
"..................................        ................        ..................................",
"....................................................................................................",
"....................................................................................................",
"....................................................................................................",
"....................................................................................................",
"....................................................................................................",
"....................................................................................................",
"....................................................................................................",
"....................................................................................................",
"....................................................................................................",
"....................................................................................................",
"....................................................................................................",
"....................................................................................................",
"....................................................................................................",
"....................................................................................................",
"....................................................................................................",
"....................................................................................................",
"....................................................................................................",
"....................................................................................................",
"....................................................................................................",
"....................................................................................................",
"....................................................................................................",
"....................................................................................................",
"....................................................................................................",
"....................................................................................................",
"....................................................................................................",
"....................................................................................................",
"....................................................................................................",
"....................................................................................................",
"....................................................................................................",
"....................................................................................................",
"....................................................................................................",
"....................................................................................................",
"...................................................................................................."
};
