/* XPM */
static char *a8650a46e638458fbae3d046b18820193y4mxDVcYzyY5kwf[] = {
/* columns rows colors chars-per-pixel */
"64 64 2 1 ",
"  c black",
". c #99D9EA",
/* pixels */
"................................................................",
"................................................................",
"................................................................",
"................................................................",
"................................................................",
"................................................................",
"................................................................",
"................................................................",
"................................................................",
"................................................................",
"................................................................",
"................................................................",
"................................................................",
"................................................................",
"................................................................",
"..................       ..............       ..................",
"..................       ..............       ..................",
"..................       ..............       ..................",
"..................       ..............       ..................",
"..................       ..............       ..................",
"..................       ..............       ..................",
"..................       ..............       ..................",
"..................              .......       ..................",
"..................              .......       ..................",
"..................              .......       ..................",
"..................              .......       ..................",
"..................              .......       ..................",
"..................              .......       ..................",
"..................              .......       ..................",
"..................       .......              ..................",
"..................       .......              ..................",
"..................       .......              ..................",
"..................       .......              ..................",
"..................       .......              ..................",
"..................       .......              ..................",
"..................       .......              ..................",
"..................       ..............       ..................",
"..................       ..............       ..................",
"..................       ..............       ..................",
"..................       ..............       ..................",
"..................       ..............       ..................",
"..................       ..............       ..................",
"..................       ..............       ..................",
"..................       ..............       ..................",
"..................       ..............       ..................",
"..................       ..............       ..................",
"..................       ..............       ..................",
"..................       ..............       ..................",
"..................       ..............       ..................",
"..................       ..............       ..................",
"................................................................",
"................................................................",
"................................................................",
"................................................................",
"................................................................",
"................................................................",
"................................................................",
"................................................................",
"................................................................",
"................................................................",
"................................................................",
"................................................................",
"................................................................",
"................................................................"
};
