/* XPM */
static char *f6dfe491987f4b9ee538895dbf6f3504MZrslpx32hV2zNlf[] = {
/* columns rows colors chars-per-pixel */
"64 64 2 1 ",
"  c black",
". c #99D9EA",
/* pixels */
"................................................................",
"................................................................",
"................................................................",
"................................................................",
"................................................................",
"................................................................",
"................................................................",
"................................................................",
"................................................................",
"................................................................",
"................................................................",
"................................................................",
"................................................................",
"................................................................",
".........................                     ..................",
".........................                     ..................",
".........................                     ..................",
".........................                     ..................",
".........................                     ..................",
".........................                     ..................",
".........................                     ..................",
"..................       .......................................",
"..................       .......................................",
"..................       .......................................",
"..................       .......................................",
"..................       .......................................",
"..................       .......................................",
"..................       .......................................",
".........................              .........................",
".........................              .........................",
".........................              .........................",
".........................              .........................",
".........................              .........................",
".........................              .........................",
".........................              .........................",
".......................................       ..................",
".......................................       ..................",
".......................................       ..................",
".......................................       ..................",
".......................................       ..................",
".......................................       ..................",
".......................................       ..................",
"..................                     .........................",
"..................                     .........................",
"..................                     .........................",
"..................                     .........................",
"..................                     .........................",
"..................                     .........................",
"..................                     .........................",
"................................................................",
"................................................................",
"................................................................",
"................................................................",
"................................................................",
"................................................................",
"................................................................",
"................................................................",
"................................................................",
"................................................................",
"................................................................",
"................................................................",
"................................................................",
"................................................................",
"................................................................"
};
