/* XPM */
static char *_b673519e6a0471fc685ecdd9f810990O7atuFf2F02oo5d4[] = {
/* columns rows colors chars-per-pixel */
"100 100 2 1 ",
"  c black",
". c #FF7E00",
/* pixels */
"....................................................................................................",
"....................................................................................................",
"....................................................................................................",
"....................................................................................................",
"....................................................................................................",
"....................................................................................................",
"....................................................................................................",
"....................................................................................................",
"....................................................................................................",
"....................................................................................................",
"....................................................................................................",
"....................................................................................................",
"....................................................................................................",
"....................................................................................................",
"....................................................................................................",
"....................................................................................................",
"....................................................................................................",
"....................................................................................................",
"....................................................................................................",
"....................................................................................................",
"....................................................................................................",
"....................................................................................................",
"....................................................................................................",
"....................................................................................................",
"....................................................................................................",
"....................................................................................................",
"....................................................................................................",
"....................................................................................................",
".........................................                        ...................................",
".........................................                        ...................................",
".........................................                        ...................................",
".........................................                        ...................................",
".........................................                        ...................................",
".........................................                        ...................................",
".........................................                        ...................................",
".........................................                        ...................................",
".................................        ...........................................................",
".................................        ...........................................................",
".................................        ...........................................................",
".................................        ...........................................................",
".................................        ...........................................................",
".................................        ...........................................................",
".................................        ...........................................................",
".................................        ...........................................................",
".........................................                ...........................................",
".........................................                ...........................................",
".........................................                ...........................................",
".........................................                ...........................................",
".........................................                ...........................................",
".........................................                ...........................................",
".........................................                ...........................................",
".........................................                ...........................................",
".........................................................        ...................................",
".........................................................        ...................................",
".........................................................        ...................................",
".........................................................        ...................................",
".........................................................        ...................................",
".........................................................        ...................................",
".........................................................        ...................................",
".........................................................        ...................................",
".................................                        ...........................................",
".................................                        ...........................................",
".................................                        ...........................................",
".................................                        ...........................................",
".................................                        ...........................................",
".................................                        ...........................................",
".................................                        ...........................................",
".................................                        ...........................................",
"....................................................................................................",
"....................................................................................................",
"....................................................................................................",
"....................................................................................................",
"....................................................................................................",
"....................................................................................................",
"....................................................................................................",
"....................................................................................................",
"....................................................................................................",
"....................................................................................................",
"....................................................................................................",
"....................................................................................................",
"....................................................................................................",
"....................................................................................................",
"....................................................................................................",
"....................................................................................................",
"....................................................................................................",
"....................................................................................................",
"....................................................................................................",
"....................................................................................................",
"....................................................................................................",
"....................................................................................................",
"....................................................................................................",
"....................................................................................................",
"....................................................................................................",
"....................................................................................................",
"....................................................................................................",
"....................................................................................................",
"....................................................................................................",
"....................................................................................................",
"....................................................................................................",
"...................................................................................................."
};
