/* XPM */
static char *b61514b482e74c0c8d1f26033e6a41cdTT7zRQBiLlfNzIyl[] = {
/* columns rows colors chars-per-pixel */
"100 100 2 1 ",
"  c black",
". c #22B14C",
/* pixels */
"....................................................................................................",
"....................................................................................................",
"....................................................................................................",
"....................................................................................................",
"....................................................................................................",
"....................................................................................................",
"....................................................................................................",
"....................................................................................................",
"....................................................................................................",
"....................................................................................................",
"....................................................................................................",
"....................................................................................................",
"....................................................................................................",
"....................................................................................................",
"....................................................................................................",
"....................................................................................................",
"....................................................................................................",
"....................................................................................................",
"....................................................................................................",
"....................................................................................................",
"....................................................................................................",
"....................................................................................................",
"....................................................................................................",
"....................................................................................................",
"....................................................................................................",
"....................................................................................................",
"....................................................................................................",
"....................................................................................................",
"....................................................................................................",
".............................        ........................        ...............................",
".............................        ........................        ...............................",
".............................        ........................        ...............................",
".............................        ........................        ...............................",
".............................        ........................        ...............................",
".............................        ........................        ...............................",
".............................        ........................        ...............................",
".............................        ........................        ...............................",
".............................        ........................        ...............................",
".............................        ........................        ...............................",
".............................        ........................        ...............................",
".............................        ........................        ...............................",
".............................        ........................        ...............................",
".............................        ........................        ...............................",
".............................        ........................        ...............................",
".............................        ........................        ...............................",
".............................        ........        ........        ...............................",
".............................        ........        ........        ...............................",
".............................        ........        ........        ...............................",
".............................        ........        ........        ...............................",
".............................        ........        ........        ...............................",
".............................        ........        ........        ...............................",
".............................        ........        ........        ...............................",
".............................        ........        ........        ...............................",
".............................                ........                ...............................",
".............................                ........                ...............................",
".............................                ........                ...............................",
".............................                ........                ...............................",
".............................                ........                ...............................",
".............................                ........                ...............................",
".............................                ........                ...............................",
".............................                ........                ...............................",
".............................        ........................        ...............................",
".............................        ........................        ...............................",
".............................        ........................        ...............................",
".............................        ........................        ...............................",
".............................        ........................        ...............................",
".............................        ........................        ...............................",
".............................        ........................        ...............................",
".............................        ........................        ...............................",
"....................................................................................................",
"....................................................................................................",
"....................................................................................................",
"....................................................................................................",
"....................................................................................................",
"....................................................................................................",
"....................................................................................................",
"....................................................................................................",
"....................................................................................................",
"....................................................................................................",
"....................................................................................................",
"....................................................................................................",
"....................................................................................................",
"....................................................................................................",
"....................................................................................................",
"....................................................................................................",
"....................................................................................................",
"....................................................................................................",
"....................................................................................................",
"....................................................................................................",
"....................................................................................................",
"....................................................................................................",
"....................................................................................................",
"....................................................................................................",
"....................................................................................................",
"....................................................................................................",
"....................................................................................................",
"....................................................................................................",
"....................................................................................................",
"....................................................................................................",
"...................................................................................................."
};
