/* XPM */
static char *f876b775cf2c4a15a22e989b6d6e3a68yIb3nOpb45YQ2iNJ[] = {
/* columns rows colors chars-per-pixel */
"64 64 2 1 ",
"  c black",
". c #99D9EA",
/* pixels */
"................................................................",
"................................................................",
"................................................................",
"................................................................",
"................................................................",
"................................................................",
"................................................................",
"................................................................",
"................................................................",
"................................................................",
"................................................................",
"................................................................",
"................................................................",
"................................................................",
"................................................................",
"...............       .....................       ..............",
"...............       .....................       ..............",
"...............       .....................       ..............",
"...............       .....................       ..............",
"...............       .....................       ..............",
"...............       .....................       ..............",
"...............       .....................       ..............",
"...............       .....................       ..............",
"...............       .....................       ..............",
"...............       .....................       ..............",
"...............       .....................       ..............",
"...............       .....................       ..............",
"...............       .....................       ..............",
"...............       .....................       ..............",
"...............       .......       .......       ..............",
"...............       .......       .......       ..............",
"...............       .......       .......       ..............",
"...............       .......       .......       ..............",
"...............       .......       .......       ..............",
"...............       .......       .......       ..............",
"...............       .......       .......       ..............",
"...............              .......              ..............",
"...............              .......              ..............",
"...............              .......              ..............",
"...............              .......              ..............",
"...............              .......              ..............",
"...............              .......              ..............",
"...............              .......              ..............",
"...............       .....................       ..............",
"...............       .....................       ..............",
"...............       .....................       ..............",
"...............       .....................       ..............",
"...............       .....................       ..............",
"...............       .....................       ..............",
"...............       .....................       ..............",
"................................................................",
"................................................................",
"................................................................",
"................................................................",
"................................................................",
"................................................................",
"................................................................",
"................................................................",
"................................................................",
"................................................................",
"................................................................",
"................................................................",
"................................................................",
"................................................................"
};
